<?xml version="1.0" standalone="no"?>
<!DOCTYPE svg PUBLIC "-//W3C//DTD SVG 20010904//EN"
 "http://www.w3.org/TR/2001/REC-SVG-20010904/DTD/svg10.dtd">
<svg version="1.0" xmlns="http://www.w3.org/2000/svg"
 width="16.000000pt" height="16.000000pt" viewBox="0 0 16.000000 16.000000"
 preserveAspectRatio="xMidYMid meet">

<g transform="translate(0.000000,16.000000) scale(0.100000,-0.100000)"
fill="#000000" stroke="none">
<path d="M0 80 l0 -80 80 0 80 0 0 80 0 80 -80 0 -80 0 0 -80z m114 14 c7 -19
-2 -41 -22 -49 -21 -8 -55 26 -47 48 11 28 58 29 69 1z"/>
<path d="M64 83 c3 -8 6 -17 6 -19 0 -10 18 -3 23 10 3 8 -2 16 -14 19 -15 4
-19 2 -15 -10z"/>
</g>
</svg>
